<?xml version="1.0" encoding="utf-8"?>
<svg height="20px" width="23px" xmlns="http://www.w3.org/2000/svg">
                                    <g
                                        id="Page-1"
                                        stroke="none"
                                        fill-rule="evenodd"
                                        fill="#FFFFFF"
                                    >
                                        <g
                                            id="Orders-revamp---List---Return-Flow"
                                            transform="translate(-16.000000, -158.000000)"
                                            fill-rule="nonzero"
                                        >
                                            <g
                                                id="Group-17-Copy-98"
                                                transform="translate(0.000000, 137.000000)"
                                            >
                                                <g
                                                    id="Group-6-Copy"
                                                    transform="translate(12.000000, 16.000000)"
                                                >
                                                    <g
                                                        id="Asset"
                                                        transform="translate(0.000000, 1.000000)"
                                                    >
                                                        <g id="Group-2">
                                                            <g
                                                                id="Group-7"
                                                                transform="translate(4.000000, 4.000000)"
                                                            >
                                                                <path
                                                                    d="M11.3333333,6.88888889 L14,6.88888889 C15.9636791,6.88888889 17.5555556,8.48076533 17.5555556,10.4444444 C17.5555556,12.4081236 15.9636791,14 14,14 L6,14 C5.50908022,14 5.11111111,14.3979691 5.11111111,14.8888889 C5.11111111,15.3798087 5.50908022,15.7777778 6,15.7777778 L14,15.7777778 C16.9455187,15.7777778 19.3333333,13.3899631 19.3333333,10.4444444 C19.3333333,7.49892578 16.9455187,5.11111111 14,5.11111111 L11.3333333,5.11111111 C10.8424136,5.11111111 10.4444444,5.50908022 10.4444444,6 C10.4444444,6.49091978 10.8424136,6.88888889 11.3333333,6.88888889 Z"
                                                                    id="Path-3"
                                                                ></path>
                                                                <path
                                                                    d="M10.1848493,11.9611183 C10.531982,11.6139856 10.531982,11.0511723 10.1848493,10.7040396 C9.8377166,10.3569069 9.27490328,10.3569069 8.92777058,10.7040396 L5.37146064,14.2603495 C5.02432794,14.6074822 5.02432794,15.1702955 5.37146064,15.5174282 L8.92777058,19.0737382 C9.27490328,19.4208709 9.8377166,19.4208709 10.1848493,19.0737382 C10.531982,18.7266055 10.531982,18.1637922 10.1848493,17.8166595 L7.25707872,14.8888889 L10.1848493,11.9611183 Z"
                                                                    id="Path-8"
                                                                ></path>
                                                            </g>
                                                        </g>
                                                    </g>
                                                </g>
                                            </g>
                                        </g>
                                    </g>
                                </svg>